<mxfile type="github" version="13.5.1" host="app.diagrams.net" modified="2020-07-24T09:07:50.808Z" agent="5.0 (Windows NT 10.0; Win64; x64) AppleWebKit/537.36 (KHTML, like Gecko) Chrome/70.0.3538.102 Safari/537.36 Edge/18.18362" etag="p4iibzgvVm3uPIq26-C3">
  <diagram id="YUUjNsagxjaq_ZHnB_Ie" name="第 1 页">
    <mxGraphModel grid="1" dx="1422" dy="792" gridSize="10" guides="1" tooltips="1" connect="1" arrows="1" fold="1" page="1" pageScale="1" pageWidth="827" pageHeight="1169" math="0" shadow="0">
      <root>
        <mxCell id="0" />
        <mxCell id="1" parent="0" />
        <mxCell id="V-Z97HJCssfl5l4s63Vd-1" value="" parent="1" style="whiteSpace=wrap;html=1;aspect=fixed;" vertex="1">
          <mxGeometry as="geometry" x="140" y="110" width="80" height="80" />
        </mxCell>
      </root>
    </mxGraphModel>
  </diagram>
</mxfile>
